<?xml version="1.0" encoding="UTF-8"?>
<svg id="Ebene_1" data-name="Ebene 1" xmlns="http://www.w3.org/2000/svg" width="100mm" height="25mm" viewBox="0 0 283.46 70.87">
  <path d="M21.13,30.19c-1.52-3.01-4.13-6.55-8.24-9.36l-4.88,6.76c4.97,3.47,6.87,8.36,6.87,13.65v21.07h9.13v-22.43c.72-1.12,4.57-6.17,10.49-6.17l-1.76-9.29c-5.69-.16-10.73,4.89-11.61,5.77Z"/>
  <path d="M66.68,46.53v-7.85c0-8.17-4.49-14.26-14.18-14.26-5.05,0-9.77,2.32-11.13,3.28l3.6,6.49c1.2-.72,4-1.92,7.05-1.92,3.76,0,5.53,2.56,5.53,6.81h-3.92c-9.77,0-16.42,4.33-16.42,12.25,0,7.29,5.29,12.02,13.06,12.02,5.77,0,9.85-3.44,10.73-4.65,.96,1.44,3.6,4.41,4.08,4.73l7.69-4.73c-4.17-3.2-6.09-6.89-6.09-12.17Zm-15.22,9.85c-2.32,0-4.97-1.68-4.97-5.37,0-3.04,2.24-5.61,7.13-5.61h3.92c0,.4,.08,1.76,.08,2.32,.08,1.6,.4,3.6,.56,4.57,0,0-2.48,4.09-6.73,4.09Z"/>
  <path d="M110.2,46.53V7.35h-9.13V28.19c-.88-.8-4.16-3.77-8.81-3.77-10.65,0-16.9,9.13-16.9,19.46s6.25,19.46,16.9,19.46c6.33,0,10.25-3.44,11.69-5.53,.96,1.84,3.04,4.49,4.65,5.61l7.69-4.73c-4.17-3.2-6.09-6.89-6.09-12.17Zm-17.38,8.49c-5.37,0-8.17-5.77-8.17-11.13s2.8-11.13,8.17-11.13,8.25,5.69,8.25,11.13-2.88,11.13-8.25,11.13Z"/>
  <rect x="121.9" y="25.47" width="9.13" height="36.84"/>
  <path d="M126.46,9.48c-3.04,0-5.45,2.4-5.45,5.45s2.4,5.45,5.45,5.45,5.45-2.48,5.45-5.45-2.48-5.45-5.45-5.45Z"/>
  <path d="M157.06,32.76c2.96,0,5.77,1.6,7.29,4l5.77-5.45c-3.77-4.89-8.09-6.89-13.94-6.89-10.17,0-17.3,8.73-17.3,19.46s7.13,19.46,17.3,19.46c5.85,0,10.17-2,13.94-6.89l-5.77-5.45c-1.6,2.48-4.32,4.01-7.29,4.01-5.61,0-8.89-4.89-8.89-11.13s3.28-11.13,8.89-11.13Z"/>
  <path d="M202.71,46.53v-7.85c0-8.17-4.48-14.26-14.18-14.26-5.05,0-9.77,2.32-11.13,3.28l3.6,6.49c1.2-.72,4-1.92,7.05-1.92,3.77,0,5.53,2.56,5.53,6.81h-3.92c-9.77,0-16.42,4.33-16.42,12.25,0,7.29,5.29,12.02,13.06,12.02,5.77,0,9.85-3.44,10.73-4.65,.96,1.44,3.6,4.41,4.08,4.73l7.69-4.73c-4.16-3.2-6.09-6.89-6.09-12.17Zm-15.22,9.85c-2.32,0-4.97-1.68-4.97-5.37,0-3.04,2.24-5.61,7.13-5.61h3.92c0,.4,.08,1.76,.08,2.32,.08,1.6,.4,3.6,.56,4.57,0,0-2.48,4.09-6.73,4.09Z"/>
  <path d="M233.63,24.35c-6.49,0-12.01,5.77-12.01,5.77-.48-1.04-2.61-4.39-5.01-6.22l-6.46,5.88c3.78,2.64,5.22,6.19,5.22,11.47v21.07h9.13v-24.03s2.8-5.29,7.61-5.29c3.04,0,4.89,1.84,4.89,5.93v23.39h9.13v-25.79c0-7.45-5.21-12.17-12.5-12.17Z"/>
  <path d="M275.44,33.88v-8.41h-7.29V14.25h-9.13v11.21h-6.97v8.41h6.97v12.73c0,7.21,2.24,12.09,7.53,16.9l7.69-4.73c-4.17-3.2-6.09-6.89-6.09-12.18v-12.73h7.29Z"/>
</svg>